Simulation
nRows=16
nColumns=15
endheader
time  TH_x TH_y TH_z SC_y  SC_z  SC_x  AC_y  AC_z  AC_x  GH_y  GH_z  GH_yy  EL_x  PS_y
1.5  0.000000  0.000000  0.000000  -39.27463718399386  8.60086013289566  14.882776333290256  42.36527263565241  23.334704917275985  6.2479618173586875  0.7783960377585536  53.914040787703854  4.469594748589626  19.61102248094084  0.000000
1.53  0.000000  0.000000  0.000000  -39.01223300494655  8.414752929286134  14.34569553133791  42.236175385832006  23.301954637162165  5.965374078644057  0.7263395498139243  53.42785449369546  4.12220247803081  19.81300372232392  0.000000
1.56  0.000000  0.000000  0.000000  -38.743035182227096  8.178400372791444  13.719427802469035  42.119570762901745  23.280442423472387  5.672482753836667  0.6572470053251231  52.7056937618618  3.6451830033242887  20.10131635845681  0.000000
1.5899999999999999  0.000000  0.000000  0.000000  -38.487766212275844  7.899955385803904  13.028033384983878  42.025074687083475  23.260227396666014  5.379654805291817  0.5768729025605461  51.72905019374696  3.0484595284686646  20.48707491762604  0.000000
1.6199999999999999  0.000000  0.000000  0.000000  -38.253789288944226  7.59030008674079  12.295645082656856  41.955198767728305  23.207089264088566  5.074226977873365  0.4966377130454694  50.51322630577772  2.351485338577538  20.98554016058061  0.000000
1.65  0.000000  0.000000  0.000000  -38.03683516939083  7.2598182832580935  11.534472995797104  41.90814268619901  23.087623028833278  4.7415389640423395  0.4258423176096555  49.09140479856178  1.5799196041767347  21.610354218594285  0.000000
1.68  0.000000  0.000000  0.000000  -37.83148236991879  6.9154249596534925  10.743011168753885  41.887674855430355  22.87725131825642  4.385267269306891  0.3626746041933189  47.510998209041375  0.767461582663222  22.364124482997614  0.000000
1.71  0.000000  0.000000  0.000000  -37.630531205750295  6.560095010106173  9.921143080597986  41.91086835631486  22.556830255152523  4.0143407570402  0.29020078893861356  45.83044871641594  -0.04664216264033513  23.227140006017205  0.000000
1.74  0.000000  0.000000  0.000000  -37.423119571057306  6.196296812606604  9.073756157149726  41.99671440388075  22.10618866925624  3.6414868552793505  0.18013908586943458  44.11490136914274  -0.8170604220812672  24.158817080881132  0.000000
1.77  0.000000  0.000000  0.000000  -37.19944889213322  5.822914913772273  8.183009635483018  42.14516044672085  21.532072228544585  3.299609350652397  0.011505610887377081  42.426872728176754  -1.501977012080826  25.106440812554023  0.000000
1.7999999999999998  0.000000  0.000000  0.000000  -36.94939982480837  5.437389231852524  7.237771086710998  42.33582034212761  20.85785544919678  3.0098321679238755  -0.21204150933131719  40.81368604272451  -2.074746165905757  26.008283633424636  0.000000
1.8299999999999998  0.000000  0.000000  0.000000  -36.66248863572591  5.039157435735991  6.257934014848988  42.53724759324308  20.09899223735535  2.7640066914785346  -0.459652636597398  39.306269535276684  -2.5218381509356753  26.793430045120346  0.000000
1.8599999999999999  0.000000  0.000000  0.000000  -36.332698544251  4.627301774068671  5.272428244159861  42.719885512816816  19.27497498750822  2.547513256266986  -0.6953935169897006  37.918481474774396  -2.836001627452043  27.394069017457678  0.000000
1.89  0.000000  0.000000  0.000000  -35.963779144928516  4.2036354784166114  4.311197325051401  42.8701687367068  18.406695315439936  2.3469703703422553  -0.8999887631632325  36.652764332706376  -3.0159530251513864  27.768586050610846  0.000000
1.92  0.000000  0.000000  0.000000  -35.57095830974632  3.770752007068746  3.4015709768345994  42.99071502760589  17.514579405081935  2.157369228629273  -1.082615798242384  35.50272966564718  -3.073213936424873  27.918071333756746  0.000000
1.95  0.000000  0.000000  0.000000  -35.17546218998889  3.3328267332418418  2.5684009066786637  43.094325880730636  16.61371751901376  1.9746512718577847  -1.2686523192724433  34.455750515621794  -3.0289358346671316  27.872817911416234  0.000000
